#!OML:ASF F:\VICON\USERDATA\INSTALL\rory3\rory3.ASF
:FULLY-SPECIFIED
:DEGREES
674
root 4.99353 16.5797 2.04749 6.50897 -13.8317 -7.56225
lowerback 20.7804 -0.865044 4.90641
upperback 4.1721 0.0182393 1.69287
thorax -7.06716 -0.0942502 -0.967377
lowerneck -13.9823 -0.366494 -1.90088
upperneck 36.702 0.753902 -2.4564
head 15.1652 -0.356506 -0.589037
rclavicle -7.32522e-014 5.70512e-014
rhumerus -36.6244 0.604448 -8.26031
rradius 27.8964
rwrist 11.9219
rhand -23.3588 -51.1807
rfingers 7.12502
rthumb 3.09658 -81.1379
lclavicle -7.32522e-014 5.70512e-014
lhumerus -34.1921 -1.81102 1.79131
lradius 23.4527
lwrist 11.1475
lhand -24.7719 -32.9638
lfingers 7.12502
lthumb 1.73189 -2.99104
rfemur -102.887 1.72733 28.4495
rtibia 99.5957
rfoot 49.6808 5.30838
rtoes -3.17436
lfemur -31.007 1.85323 -22.6636
ltibia 49.3335
lfoot -21.2253 11.0626
ltoes 14.1597
675
root 4.99238 16.5734 2.04329 6.52594 -13.9481 -7.54559
lowerback 20.7921 -0.815508 4.81894
upperback 4.17541 0.0638604 1.68795
thorax -7.06774 -0.0707382 -0.93505
lowerneck -14.0452 -0.369308 -1.90583
upperneck 36.7147 0.739475 -2.41833
head 15.1857 -0.358612 -0.575034
rclavicle 1.83876e-014 2.38542e-015
rhumerus -36.5879 0.686225 -8.34298
rradius 27.9213
rwrist 11.8367
rhand -23.2458 -51.3478
rfingers 7.12502
rthumb 3.20572 -81.3034
lclavicle 1.83876e-014 2.38542e-015
lhumerus -34.2597 -1.90068 1.83356
lradius 23.5835
lwrist 11.2841
lhand -24.6488 -32.9256
lfingers 7.12502
lthumb 1.85078 -2.95392
rfemur -102.942 1.85606 28.3929
rtibia 99.6161
rfoot 49.4669 5.37234
rtoes -4.00741
lfemur -31.0836 1.83873 -22.6769
ltibia 49.3969
lfoot -21.2486 11.1232
ltoes 13.9531
676
root 4.99278 16.5686 2.04527 6.43011 -14.0444 -7.21472
lowerback 20.7409 -0.756854 4.48779
upperback 4.21678 0.0567641 1.59446
thorax -6.99716 -0.0665678 -0.846892
lowerneck -14.1708 -0.369338 -1.87063
upperneck 36.7699 0.735414 -2.42128
head 15.2422 -0.35732 -0.58469
rclavicle -5.41688e-014 3.35946e-014
rhumerus -36.5787 0.714521 -8.40687
rradius 27.8672
rwrist 11.9418
rhand -23.3548 -51.3239
rfingers 7.12502
rthumb 3.10047 -81.2811
lclavicle -5.41688e-014 3.35946e-014
lhumerus -34.231 -1.82172 1.81746
lradius 23.5517
lwrist 11.2654
lhand -24.5549 -32.9698
lfingers 7.12502
lthumb 1.94147 -2.99893
rfemur -103.048 1.82832 28.0211
rtibia 99.7365
rfoot 49.5255 5.33959
rtoes -3.90521
lfemur -31.0282 1.78162 -23.0511
ltibia 49.4033
lfoot -21.3015 11.2038
ltoes 14.1228
677
root 4.99354 16.5673 2.04664 6.34649 -14.1253 -6.97904
lowerback 20.6931 -0.704088 4.24903
upperback 4.26727 0.0645784 1.5337
thorax -6.91739 -0.0568448 -0.779578
lowerneck -14.224 -0.382896 -1.85563
upperneck 36.7375 0.723076 -2.44946
head 15.2392 -0.363822 -0.600975
rclavicle 2.0276e-014 -3.91606e-014
rhumerus -36.6086 0.692028 -8.41354
rradius 27.9194
rwrist 12.037
rhand -23.5692 -51.2106
rfingers 7.12502
rthumb 2.89344 -81.1707
lclavicle 2.0276e-014 -3.91606e-014
lhumerus -34.1904 -1.80464 1.85074
lradius 23.5387
lwrist 11.3244
lhand -24.7568 -33.6202
lfingers 7.12502
lthumb 1.74643 -3.64761
rfemur -103.086 1.81219 27.7471
rtibia 99.798
rfoot 49.7627 4.9094
rtoes -2.95714
lfemur -30.9434 1.78187 -23.3271
ltibia 49.3725
lfoot -21.324 11.3198
ltoes 13.7115
678
root 4.99549 16.5709 2.04504 6.32708 -14.2352 -7.0129
lowerback 20.6985 -0.667116 4.24401
upperback 4.30787 0.109712 1.53456
thorax -6.874 -0.0341376 -0.787792
lowerneck -14.2716 -0.402505 -1.86964
upperneck 36.6904 0.686417 -2.41515
head 15.2268 -0.375874 -0.589573
rclavicle 3.8763e-015 9.54166e-015
rhumerus -36.6335 0.573165 -8.40911
rradius 28.0599
rwrist 11.9971
rhand -23.5174 -51.3219
rfingers 7.12502
rthumb 2.94344 -81.2813
lclavicle 3.8763e-015 9.54166e-015
lhumerus -34.1839 -1.77079 1.87103
lradius 23.5763
lwrist 11.4025
lhand -24.972 -34.1657
lfingers 7.12502
lthumb 1.53861 -4.19151
rfemur -103.01 1.90011 27.7562
rtibia 99.772
rfoot 49.9357 4.92876
rtoes -2.25211
lfemur -30.8728 1.85538 -23.3108
ltibia 49.3224
lfoot -21.3105 11.4265
ltoes 13.2175
679
root 4.99753 16.5731 2.04379 6.31798 -14.2669 -7.0568
lowerback 20.684 -0.666705 4.28368
upperback 4.35687 0.114316 1.52141
thorax -6.81244 -0.0313492 -0.826047
lowerneck -14.4415 -0.42861 -1.88925
upperneck 36.7215 0.613858 -2.29134
head 15.2805 -0.393362 -0.54735
rclavicle 1.49089e-015 3.97569e-016
rhumerus -36.609 0.372733 -8.43175
rradius 28.1003
rwrist 11.8599
rhand -23.1943 -51.427
rfingers 7.12502
rthumb 3.25543 -81.3819
lclavicle 1.49089e-015 3.97569e-016
lhumerus -34.1519 -1.66883 1.83493
lradius 23.6373
lwrist 11.4206
lhand -25.0582 -34.1621
lfingers 7.12502
lthumb 1.45532 -4.18733
rfemur -102.966 1.91593 27.7909
rtibia 99.7539
rfoot 49.9404 5.30081
rtoes -2.40141
lfemur -30.84 1.88223 -23.2708
ltibia 49.2791
lfoot -21.2952 11.4644
ltoes 13.1289
680
root 4.99865 16.572 2.04211 6.28003 -14.2636 -6.99024
lowerback 20.6742 -0.666778 4.2179
upperback 4.39774 0.0960531 1.49826
thorax -6.76388 -0.0379597 -0.809193
lowerneck -14.5686 -0.4524 -1.95377
upperneck 36.7601 0.555496 -2.16265
head 15.3281 -0.410246 -0.492546
rclavicle -2.72335e-014 2.10712e-014
rhumerus -36.5757 0.30468 -8.4743
rradius 28.1299
rwrist 11.633
rhand -23.0689 -51.4799
rfingers 7.12502
rthumb 3.37658 -81.4329
lclavicle -2.72335e-014 2.10712e-014
lhumerus -34.1092 -1.67573 1.8527
lradius 23.6298
lwrist 11.4552
lhand -25.0743 -33.5857
lfingers 7.12502
lthumb 1.43983 -3.61078
rfemur -102.987 1.87208 27.7251
rtibia 99.7624
rfoot 49.8143 5.34844
rtoes -3.21311
lfemur -30.8111 1.90326 -23.3437
ltibia 49.2463
lfoot -21.2895 11.4482
ltoes 13.8641
681
root 4.99936 16.5717 2.03958 6.27461 -14.2754 -6.93958
lowerback 20.6673 -0.654312 4.13062
upperback 4.39468 0.0945947 1.51121
thorax -6.76415 -0.0370958 -0.745258
lowerneck -14.5177 -0.454671 -2.02277
upperneck 36.7317 0.557786 -2.12663
head 15.3022 -0.413295 -0.464014
rclavicle -2.23633e-014 1.45113e-014
rhumerus -36.5707 0.342089 -8.47942
rradius 28.1676
rwrist 11.455
rhand -23.1311 -51.5236
rfingers 7.12502
rthumb 3.31647 -81.4775
lclavicle -2.23633e-014 1.45113e-014
lhumerus -34.134 -1.77124 1.93867
lradius 23.6159
lwrist 11.5099
lhand -25.097 -32.7094
lfingers 7.12502
lthumb 1.41791 -2.7344
rfemur -103.018 1.8545 27.6798
rtibia 99.7622
rfoot 49.8041 5.14912
rtoes -3.50527
lfemur -30.817 1.98693 -23.4042
ltibia 49.2163
lfoot -21.2539 11.3561
ltoes 14.9519
682
root 4.99909 16.57 2.03756 6.30542 -14.2647 -6.9307
lowerback 20.6183 -0.638287 4.11167
upperback 4.3838 0.109866 1.51781
thorax -6.74958 -0.0291301 -0.731473
lowerneck -14.4118 -0.453567 -2.01569
upperneck 36.702 0.561362 -2.14921
head 15.2627 -0.412856 -0.473226
rclavicle -4.3832e-014 -1.8487e-014
rhumerus -36.6216 0.293762 -8.45028
rradius 28.1357
rwrist 11.3865
rhand -23.0708 -51.4828
rfingers 7.12502
rthumb 3.37473 -81.4359
lclavicle -4.3832e-014 -1.8487e-014
lhumerus -34.1223 -1.72843 1.96648
lradius 23.6485
lwrist 11.4226
lhand -25.2362 -32.4518
lfingers 7.12502
lthumb 1.28348 -2.47588
rfemur -103.062 1.83672 27.6818
rtibia 99.767
rfoot 49.949 4.79663
rtoes -2.95865
lfemur -30.8604 2.07801 -23.4131
ltibia 49.1857
lfoot -21.2189 11.2186
ltoes 15.5117
683
root 4.99839 16.5695 2.03513 6.32037 -14.2366 -6.94104
lowerback 20.6447 -0.631082 4.11331
upperback 4.35139 0.123334 1.52672
thorax -6.79825 -0.0236217 -0.726012
lowerneck -14.3279 -0.451646 -2.00002
upperneck 36.6948 0.558294 -2.15507
head 15.2393 -0.412194 -0.478465
rclavicle -1.2921e-014 9.14409e-015
rhumerus -36.638 0.346049 -8.44614
rradius 28.0265
rwrist 11.3836
rhand -23.0007 -51.429
rfingers 7.12502
rthumb 3.44244 -81.381
lclavicle -1.2921e-014 9.14409e-015
lhumerus -34.0594 -1.66236 1.96746
lradius 23.6311
lwrist 11.2483
lhand -25.3947 -33.0544
lfingers 7.12502
lthumb 1.1304 -3.07769
rfemur -103.073 1.80293 27.711
rtibia 99.7652
rfoot 50.0606 4.55369
rtoes -2.42674
lfemur -30.8738 2.114 -23.3897
ltibia 49.1472
lfoot -21.1823 11.1545
ltoes 15.6708
684
root 4.99929 16.5742 2.03378 6.31623 -14.2289 -6.91823
lowerback 20.6999 -0.627011 4.05529
upperback 4.30055 0.123359 1.54706
thorax -6.88324 -0.0241937 -0.670575
lowerneck -14.2222 -0.443867 -2.00198
upperneck 36.6648 0.578598 -2.18986
head 15.2001 -0.407901 -0.488468
rclavicle -6.13251e-014 -7.7526e-015
rhumerus -36.6053 0.470512 -8.44615
rradius 27.9855
rwrist 11.3573
rhand -22.8107 -51.429
rfingers 7.12502
rthumb 3.62592 -81.3779
lclavicle -6.13251e-014 -7.7526e-015
lhumerus -34.0452 -1.70774 2.01886
lradius 23.5338
lwrist 11.1949
lhand -25.3532 -33.6901
lfingers 7.12502
lthumb 1.17039 -3.71352
rfemur -103.044 1.76223 27.702
rtibia 99.7402
rfoot 50.0541 4.69149
rtoes -2.48072
lfemur -30.8497 2.13153 -23.4164
ltibia 49.1023
lfoot -21.1504 11.1588
ltoes 15.6265
685
root 5.00154 16.5791 2.03332 6.30641 -14.2308 -6.86135
lowerback 20.6504 -0.62093 4.01648
upperback 4.30142 0.118598 1.5238
thorax -6.85641 -0.0253996 -0.672622
lowerneck -14.1281 -0.446697 -1.97585
upperneck 36.6266 0.568609 -2.20807
head 15.1593 -0.410016 -0.501426
rclavicle -1.91827e-014 1.8487e-014
rhumerus -36.6259 0.420298 -8.45935
rradius 28.022
rwrist 11.3143
rhand -22.703 -51.3951
rfingers 7.12502
rthumb 3.72991 -81.3422
lclavicle -1.91827e-014 1.8487e-014
lhumerus -34.028 -1.71894 2.05465
lradius 23.4751
lwrist 11.1943
lhand -25.0504 -33.3718
lfingers 7.12502
lthumb 1.46289 -3.39705
rfemur -103.034 1.70089 27.6651
rtibia 99.7303
rfoot 49.9833 4.93919
rtoes -2.92439
lfemur -30.8189 2.16211 -23.4941
ltibia 49.0692
lfoot -21.1289 11.1411
ltoes 15.3718
